<?xml version="1.0" encoding="UTF-8" standalone="no"?>
<svg xmlns="http://www.w3.org/2000/svg" width="78.173332" height="32.799999" viewBox="0 0 143 57.399999">
  <path fill="#ce0e2d" fill-rule="evenodd" d="M142.20574-.1888891h-35.72043c-.49242 0-.76547.2648916-.76547.7412448v.5297831c0 .4507672.27383.6622289.76547.6622289 3.47652.052677 5.20116 1.5622581 5.20116 4.6070059v44.9089002c0 1.82715-.35551 3.017657-1.12253 3.680638-.68379.555369-2.05293.872938-4.07785.925616-.49242 0-.76547.211461-.76547.610304v.925615c0 .476353.27383.741997.76547.741997h35.71965c.52121 0 .79426-.266396.79426-.741997v-.925615c0-.39809-.27383-.610304-.79426-.610304-1.99769-.05268-3.31237-.370247-3.99616-.925616-.79348-.662981-1.205-1.853488-1.205-3.680638V6.3513736c0-1.9859341.41152-3.2833007 1.205-3.8394224.5741-.5034445 1.91601-.7149062 3.99616-.768336.52121 0 .79426-.2114617.79426-.6622289V.5516032c.00077-.4756007-.27305-.7404923-.79426-.7404923zM91.640162 1.6695714l.132936-.8492803c0-.6637358-.265872-1.0084259-.824807-1.0084259H75.878943c-.663925 0-.982669.3454443-.982669 1.088376 0 .7700844.371617 1.1147745 1.037052 1.1147745h1.807476c1.460785 0 2.205528.4781916 2.205528 1.460219 0 .3982415-.159372.8492802-.530989 1.3267175-1.674539 2.2559476-2.950271 3.8481596-3.855142 4.7766356l-17.487877 19.372791c-.876924.875679-1.328604.742932-1.328604-.398241V5.809624c0-2.6006379 1.515168-3.9281097 4.518312-3.9281097l1.11636-.1327471c.213-.1327472.292308-.4510388.292308-.9820275 0-.6637359-.292308-.9556288-.876924-.9556288H44.172962c-.903361 0-1.328605.3982415-1.328605 1.1411732 0 .7429316.398053 1.1147746 1.142796 1.1147746 3.136081 0 4.730557 1.2211232 4.730557 3.741811v46.3106631c0 2.522196-1.594476 3.768209-4.730557 3.768209-.743988 0-1.142796.346199-1.142796 1.061978l.212245 1.007672 1.11636.187052h17.620812c.584616-.0528.876924-.398995.876924-.982781 0-.530235-.07931-.874925-.292308-1.00918l-1.11636-.132748c-3.003144 0-4.518312-1.273166-4.518312-3.900956v-15.550276c0-1.460219.213-2.361542.66468-2.760538l4.040196-4.404793c.611052-.637337 1.195668-.583786 1.673784.132747l14.618424 22.452375c.34518.662982.530988 1.301073.530988 1.857706 0 .850035-.318744 1.380269-.984179 1.645764l-2.683645.34469c-.718307 0-1.063487.398995-1.063487 1.168326 0 .742177.398052 1.088376 1.143551 1.088376h19.719085c.478117 0 .744744-.346199.744744-1.088376 0-.795729-.346691-1.194725-1.063488-1.194725-3.24258-.106348-5.581044-1.433066-7.122648-3.953754l-18.338364-28.212546c-.372372-.583786-.531744-1.008426-.505308-1.326718l.77118-1.141173L83.400399 5.1466423c1.833912-1.9904534 4.251685-3.0788294 7.361329-3.3171709Zm-9.143874 28.6970954h20.797972c.48654 0 .75632-.298923.75632-.835627v-1.105676c0-.537552-.27055-.836475-.75632-.836475H82.496288c-.486534 0-.702515.299772-.702515.836475v1.105676c0 .536704.215981.835627.702515.835627zM129.08949 4.7317831v48.0161297c0 .872145-.31971 1.640536-.93338 2.24803-.63942.608247-1.38643.926279-2.26526.926279h-2.39861c-.90686 0-1.65312-.318784-2.31981-.926279-.66595-.608246-.98566-1.375885-.98566-2.24803V4.7317831c0-.8736494.31971-1.6668508.98566-2.3284785.66745-.635313 1.41295-.925527 2.31981-.925527h2.39861c.87883 0 1.62584.2909658 2.26526.925527.61367.6616277.93338 1.4548291.93338 2.3284785zM24.716607-.1179254c2.042439.655962 3.59361 1.2604321 4.627981 1.8380369 3.185122 1.7857987 5.36295 1.470131 6.506407-.9716297.217396-.4723822.571728-.7350655 1.116378-.7350655.871131 0 1.279619.3417868 1.279619 1.0507332v14.7833983c0 .655962-.408488.997749-1.170534.997749l-.952365-.131342c-.191865-.131342-.328028-.341787-.409261-.683573-.871131-4.857403-3.185122-8.638699-7.050283-11.2647858-3.021881-2.048482-6.261159-3.0984689-9.745684-3.0984689-3.728998 0-6.587639 1.1029713-8.574375 3.2820487-1.688107 1.891021-2.531387 4.20144-2.531387 6.958122 0 2.941009 1.22469 5.330531 3.620687 7.27379 1.905503 1.523116 5.226014 3.098469 9.881073 4.805165 7.050283 2.494745 11.950589 4.779045 14.618139 6.775288 3.865934 2.993993 5.798515 6.932004 5.798515 11.790152 0 4.858149-1.579022 8.690937-4.764144 11.632691-3.294206 3.01862-7.894336 4.515616-13.637922 4.515616-4.355656 0-9.364274-1.102225-14.972471-3.25593-1.4977889-.550739-2.586316-.787303-3.3754402-.655962-.9523646.131342-1.7693402.839542-2.477231 2.099974l-.4626434.761931-.8703576.078357C.4092615 57.7283698 0 57.4134488 0 56.8612168v-16.383378c0-.526113.4084878-.788797 1.2246898-.788797.680813 0 1.0893008.262684 1.1705342.841035.7898978 3.623089 2.5043088 6.879765 5.226787 9.714804 3.59361 3.728312 8.111733 5.567841 13.610845 5.567841 4.083331 0 7.213523-1.103717 9.337196-3.282048 1.742262-1.813411 2.586316-4.123083 2.586316-6.959615 0-3.59697-1.497789-6.537232-4.518897-8.796159-1.76934-1.311924-4.818299-2.755936-9.1198-4.332036l-4.737066-1.628338c-2.395997-.919392-4.436889-1.91714-6.124996-3.020112-5.1177023-3.22981-7.6490889-7.536473-7.6490889-12.919242 0-4.75218 1.6331776-8.6648176 4.8995328-11.6849293C9.064097.170877 13.119576-1.3000002 18.019883-1.3000002c1.851347 0 4.110408.3947712 6.696724 1.1820748z"/>
</svg>